<svg viewBox="0 0 792 159" xmlns="http://www.w3.org/2000/svg">
  <g fill="none" fill-rule="evenodd">
    <path d="M79.533 35.426v17.313H26.817c-2.465 0-4.541.845-6.225 2.529-1.687 1.687-2.529 3.763-2.529 6.225 0 2.465.842 4.571 2.529 6.322 1.684 1.751 3.76 2.626 6.225 2.626h35.015c3.629 0 7.033.681 10.212 2.042 3.176 1.361 5.963 3.209 8.365 5.544 2.398 2.334 4.28 5.091 5.641 8.267 1.362 3.179 2.042 6.583 2.042 10.213 0 3.632-.681 7.036-2.042 10.212a26.404 26.404 0 0 1-5.641 8.365c-2.401 2.4-5.188 4.279-8.365 5.641-3.179 1.362-6.583 2.043-10.212 2.043H9.31v-17.313h52.521c2.593 0 4.732-.843 6.419-2.529 1.684-1.684 2.529-3.823 2.529-6.419 0-2.462-.845-4.538-2.529-6.226-1.687-1.684-3.827-2.528-6.419-2.528H26.817c-3.632 0-7.036-.681-10.212-2.042-3.179-1.362-5.933-3.241-8.267-5.642-2.334-2.398-4.183-5.186-5.544-8.365C1.432 68.528.752 65.123.752 61.492c0-3.629.681-7.033 2.042-10.213 1.361-3.176 3.209-5.933 5.544-8.267 2.334-2.334 5.088-4.182 8.267-5.544 3.176-1.362 6.581-2.042 10.212-2.042h52.716z" fill="#E2011A"/>
    <path d="M137.307 35.815c6.094 0 11.769 1.137 17.021 3.404 5.252 2.271 9.887 5.383 13.909 9.337 4.018 3.958 7.164 8.559 9.434 13.812 2.268 5.252 3.404 10.927 3.404 17.021 0 5.967-1.137 11.608-3.404 16.924-2.271 5.318-5.416 9.987-9.434 14.005a44.365 44.365 0 0 1-13.909 9.435c-5.252 2.271-10.927 3.404-17.021 3.404h-26.261v35.015H93.733V79.389c0-6.094 1.134-11.769 3.404-17.021 2.268-5.252 5.38-9.854 9.337-13.812 3.954-3.954 8.589-7.067 13.908-9.337 5.317-2.267 10.958-3.404 16.925-3.404zm10.31 67.986c3.24-1.361 6.061-3.239 8.461-5.641 2.398-2.398 4.28-5.219 5.642-8.462 1.361-3.24 2.042-6.678 2.042-10.31 0-3.629-.681-7.033-2.042-10.212a26.497 26.497 0 0 0-5.642-8.365c-2.401-2.398-5.222-4.279-8.461-5.641-3.243-1.362-6.681-2.042-10.31-2.042-3.632 0-7.036.681-10.212 2.042-3.179 1.362-5.967 3.243-8.365 5.641-2.401 2.401-4.279 5.188-5.641 8.365-1.362 3.179-2.042 6.583-2.042 10.212v26.456h26.261c3.628 0 7.066-.681 10.309-2.043z" fill="#E2011A" fill-rule="nonzero"/>
    <path d="M239.235 35.426v17.313h-8.753c-3.632 0-7.036.681-10.212 2.042-3.179 1.362-5.967 3.243-8.365 5.642-2.401 2.401-4.279 5.188-5.641 8.364-1.362 3.179-2.042 6.583-2.042 10.213v43.768h-17.507V79c0-6.094 1.134-11.769 3.404-17.021 2.267-5.252 5.413-9.854 9.435-13.812 4.018-3.954 8.687-7.066 14.005-9.337 5.316-2.268 10.958-3.404 16.924-3.404h8.752zM261.604 35.426v87.342h-17.118V35.426zM270.649 62.173c2.267-5.252 5.38-9.854 9.337-13.811 3.955-3.955 8.59-7.067 13.909-9.337 5.316-2.268 10.957-3.404 16.924-3.404 6.094 0 11.769 1.137 17.021 3.404 5.252 2.271 9.888 5.383 13.909 9.337 4.018 3.957 7.164 8.559 9.435 13.811 2.268 5.252 3.404 10.927 3.404 17.021v43.768h-17.313V79.194c0-3.629-.681-7.033-2.042-10.212a26.51 26.51 0 0 0-5.641-8.365c-2.401-2.398-5.222-4.279-8.462-5.641-3.243-1.362-6.681-2.042-10.31-2.042-3.632 0-7.037.681-10.213 2.042-3.179 1.362-5.966 3.243-8.364 5.641-2.401 2.401-4.28 5.188-5.642 8.365-1.361 3.179-2.042 6.583-2.042 10.212v43.768h-17.313V79.194c-.001-6.094 1.132-11.769 3.403-17.021z" fill="#E2011A"/>
    <path d="M403.993 35.426c6.094 0 11.769 1.137 17.021 3.404 5.252 2.271 9.854 5.383 13.812 9.337 3.954 3.958 7.066 8.559 9.337 13.812 2.268 5.252 3.404 10.927 3.404 17.021v35.014c0 6.098-1.137 11.769-3.404 17.021-2.271 5.252-5.383 9.887-9.337 13.908-3.958 4.018-8.56 7.164-13.812 9.435-5.252 2.268-10.927 3.404-17.021 3.404h-8.754v-17.313h8.754c5.835 0 10.99-1.653 15.464-4.96 4.475-3.307 7.617-7.556 9.436-12.741h-24.899c-5.967 0-11.608-1.134-16.924-3.404-5.319-2.268-9.988-5.413-14.006-9.435-4.021-4.019-7.167-8.687-9.435-14.006-2.271-5.315-3.404-10.957-3.404-16.923 0-6.094 1.133-11.769 3.404-17.021 2.268-5.252 5.414-9.854 9.435-13.812 4.018-3.954 8.687-7.066 14.006-9.337 5.315-2.267 10.956-3.404 16.923-3.404zM377.538 79c0 3.632.681 7.069 2.042 10.309 1.362 3.244 3.24 6.064 5.641 8.462 2.398 2.401 5.219 4.28 8.462 5.642 3.241 1.361 6.678 2.043 10.31 2.043h26.455V79c0-3.629-.681-7.034-2.042-10.213a26.498 26.498 0 0 0-5.642-8.364c-2.401-2.398-5.222-4.28-8.462-5.642-3.243-1.361-6.681-2.042-10.31-2.042-3.632 0-7.069.681-10.31 2.042-3.243 1.362-6.063 3.243-8.462 5.642-2.401 2.401-4.279 5.188-5.641 8.364-1.361 3.179-2.041 6.583-2.041 10.213z" fill="#E2011A" fill-rule="nonzero"/>
    <path d="M763.907.411V79c0 5.966-1.137 11.608-3.404 16.923-2.271 5.319-5.383 9.987-9.337 14.006-3.957 4.021-8.593 7.167-13.908 9.435-5.319 2.271-10.961 3.404-16.924 3.404-5.967 0-11.608-1.134-16.924-3.404-5.319-2.268-9.987-5.413-14.006-9.435-4.021-4.019-7.167-8.687-9.435-14.006-2.271-5.315-3.404-10.957-3.404-16.923 0-6.094 1.134-11.769 3.404-17.021 2.268-5.252 5.413-9.854 9.435-13.812 4.019-3.954 8.687-7.066 14.006-9.337 5.315-2.268 10.957-3.404 16.924-3.404h26.261V.411h17.312zm-43.573 105.044c3.629 0 7.033-.682 10.212-2.043 3.177-1.361 5.964-3.24 8.365-5.642 2.397-2.397 4.279-5.218 5.641-8.462 1.362-3.24 2.043-6.677 2.043-10.309V52.738h-26.261c-3.633 0-7.07.681-10.311 2.042-3.242 1.362-6.063 3.243-8.461 5.642-2.401 2.401-4.28 5.188-5.642 8.364-1.361 3.179-2.043 6.583-2.043 10.213 0 3.632.682 7.069 2.043 10.309 1.361 3.244 3.24 6.064 5.642 8.462 2.397 2.401 5.219 4.28 8.461 5.642 3.241 1.361 6.678 2.043 10.311 2.043z" fill="#B29083" fill-rule="nonzero"/>
    <path d="M780.071.395c6.218 0 11.047 4.829 11.047 10.848 0 6.151-4.829 10.914-11.113 10.914-6.218 0-11.179-4.763-11.179-10.914 0-6.02 4.961-10.848 11.179-10.848h.066zm-.133 2.183c-4.762 0-8.334 3.903-8.334 8.666 0 4.829 3.572 8.665 8.467 8.665 4.763.066 8.269-3.836 8.269-8.665 0-4.763-3.506-8.666-8.335-8.666h-.067zm-1.653 14.288h-2.514V6.084a21.091 21.091 0 0 1 4.167-.397c2.051 0 2.978.331 3.771.86.596.463 1.059 1.323 1.059 2.315 0 1.257-.926 2.183-2.249 2.58v.132c1.059.331 1.653 1.191 1.984 2.646.331 1.654.529 2.315.794 2.646h-2.712c-.331-.397-.529-1.323-.86-2.58-.198-1.19-.859-1.72-2.249-1.72h-1.19v4.3h-.001zm.067-6.086h1.19c1.389 0 2.514-.463 2.514-1.587 0-.992-.728-1.654-2.315-1.654-.661 0-1.124.066-1.389.132v3.109z" fill="#AE8D80" fill-rule="nonzero"/>
    <path fill="#B29083" d="M244.692 7.394h17.34V24.74h-17.34zM528.901 102.326c-12.48 9.961-30.704 8.404-41.278-3.762-10.86-12.486-9.534-31.409 2.948-42.263 11.089-9.642 27.244-9.672 38.33-.814v-5.626c-16.092-17.809-43.55-19.536-61.745-3.711-18.408 16.006-20.355 43.904-4.346 62.316 16.007 18.412 43.911 20.354 62.316 4.35a44.462 44.462 0 0 0 3.774-3.714v-6.776h.001z"/>
    <path d="M574.403 35.471c6.095 0 11.77 1.137 17.021 3.404 5.252 2.271 9.854 5.383 13.811 9.337 3.955 3.958 7.067 8.559 9.338 13.812 2.268 5.252 3.404 10.927 3.404 17.021v43.768h-43.574c-5.966 0-11.607-1.134-16.924-3.404-5.318-2.268-9.987-5.413-14.005-9.435-4.021-4.019-7.167-8.687-9.435-14.006-2.271-5.315-3.404-10.957-3.404-16.923 0-6.094 1.134-11.769 3.404-17.021 2.268-5.252 5.413-9.854 9.435-13.812 4.018-3.954 8.687-7.066 14.005-9.337 5.317-2.268 10.959-3.404 16.924-3.404zm26.261 70.029V79.044c0-3.629-.681-7.034-2.042-10.213a26.464 26.464 0 0 0-5.642-8.364 26.486 26.486 0 0 0-8.364-5.642c-3.18-1.361-6.583-2.042-10.213-2.042-3.632 0-7.069.681-10.31 2.042-3.243 1.362-6.063 3.243-8.462 5.642-2.401 2.401-4.279 5.188-5.641 8.364-1.362 3.179-2.043 6.583-2.043 10.213 0 3.632.681 7.069 2.043 10.309 1.361 3.244 3.239 6.064 5.641 8.462 2.398 2.401 5.219 4.28 8.462 5.642 3.24 1.361 6.678 2.043 10.31 2.043h26.261z" fill="#B29083" fill-rule="nonzero"/>
    <path d="M675.796 35.471v17.313h-8.753c-3.633 0-7.037.681-10.213 2.042-3.18 1.362-5.967 3.243-8.364 5.642-2.401 2.401-4.28 5.188-5.642 8.364-1.361 3.179-2.043 6.583-2.043 10.213v43.768h-17.507V79.045c0-6.094 1.134-11.769 3.404-17.021 2.268-5.252 5.413-9.854 9.435-13.812 4.018-3.954 8.687-7.066 14.006-9.337 5.315-2.268 10.957-3.404 16.924-3.404h8.753z" fill="#B29083"/>
  </g>
</svg>